<svg xmlns="http://www.w3.org/2000/svg" width="254" height="266" viewBox="0 0 254 266" fill="none">
  <g opacity="0.1" clip-path="url(#clip0_145_443)">
    <path d="M61.1259 214.663C60.7974 215.479 60.8034 216.294 61.1528 217.117L80.577 262.878C80.9243 263.696 81.5068 264.267 82.3235 264.602C83.1431 264.93 83.9574 264.925 84.7741 264.578L113.461 252.401C114.283 252.052 114.852 251.47 115.18 250.655C115.511 249.833 115.501 249.019 115.154 248.201L109.182 234.131L211.672 190.627L217.644 204.696C217.991 205.515 218.573 206.085 219.39 206.42C220.21 206.748 221.024 206.744 221.841 206.397L250.528 194.22C251.349 193.871 251.919 193.289 252.247 192.473C252.578 191.651 252.568 190.838 252.22 190.019L232.796 144.259C232.447 143.436 231.869 142.863 231.05 142.535C230.233 142.2 229.42 142.21 228.599 142.558L62.8451 212.917L62.8114 212.931C62.0133 213.281 61.4517 213.855 61.1259 214.663Z" fill="white"/>
    <path d="M35.8291 61.3403C35.4797 60.5172 34.9021 59.9444 34.0821 59.6164C33.2655 59.2814 32.4534 59.291 31.6319 59.6397L2.9446 71.8167C2.128 72.1634 1.55681 72.741 1.22556 73.5632C0.897023 74.3787 0.903067 75.1941 1.25245 76.0172L20.6765 121.778C21.026 122.601 21.6084 123.172 22.4231 123.502C23.2447 123.834 24.057 123.825 24.8736 123.478L190.628 53.1196C191.449 52.7711 192.02 52.1934 192.347 51.3733C192.68 50.556 192.669 49.7425 192.32 48.9194L172.895 3.15909C172.546 2.336 171.969 1.76313 171.149 1.43494C170.332 1.09994 169.52 1.10975 168.699 1.45824L140.011 13.6353C139.195 13.9821 138.624 14.5595 138.293 15.3817C137.964 16.1974 137.97 17.0128 138.319 17.8359L144.291 31.9052L41.8012 75.4096L35.8291 61.3403Z" fill="white"/>
    <path d="M34.7759 154.979L47.0183 183.82C47.3657 184.638 47.9482 185.209 48.7649 185.544C49.5845 185.872 50.3988 185.867 51.2154 185.521L79.9028 173.344C80.7244 172.995 81.2933 172.413 81.6217 171.597C81.9501 170.782 81.9425 169.961 81.5952 169.143L69.3527 140.302C69.0033 139.478 68.4251 138.906 67.6057 138.578C66.7891 138.243 65.9771 138.252 65.1555 138.601L36.4681 150.778C35.6514 151.125 35.0802 151.702 34.749 152.525C34.4205 153.34 34.4265 154.155 34.7759 154.979Z" fill="white"/>
    <path d="M103.555 125.783L115.798 154.625C116.145 155.443 116.727 156.014 117.544 156.349C118.363 156.677 119.178 156.672 119.994 156.326L148.682 144.148C149.503 143.8 150.072 143.217 150.401 142.402C150.732 141.58 150.721 140.766 150.374 139.948L138.132 111.106C137.782 110.283 137.205 109.71 136.385 109.382C135.568 109.048 134.756 109.057 133.934 109.406L105.247 121.583C104.431 121.93 103.859 122.507 103.528 123.329C103.2 124.145 103.206 124.96 103.555 125.783Z" fill="white"/>
    <path d="M172.328 96.5907L184.57 125.432C184.917 126.25 185.5 126.821 186.317 127.156C187.136 127.484 187.95 127.479 188.767 127.133L217.455 114.956C218.276 114.607 218.845 114.025 219.174 113.209C219.502 112.394 219.494 111.573 219.147 110.755L206.905 81.9136C206.555 81.0904 205.977 80.5178 205.158 80.1897C204.341 79.8548 203.528 79.8646 202.707 80.2131L174.02 92.3902C173.203 92.7369 172.632 93.3144 172.301 94.1365C171.972 94.9521 171.978 95.7675 172.328 96.5907Z" fill="white"/>
  </g>
  <defs>
    <clipPath id="clip0_145_443">
      <rect width="187" height="209.411" fill="white" transform="translate(0 73.0667) rotate(-23)"/>
    </clipPath>
  </defs>
</svg>