<svg xmlns="http://www.w3.org/2000/svg" width="24" height="24" viewBox="0 0 24 24" fill="none">
  <rect x="0.5" y="0.5" width="23" height="23" rx="11.5" stroke="black"/>
  <path d="M6.75933 16.4178L7.10383 14.0557C7.12483 13.9013 7.19521 13.7578 7.30531 13.6471L13.9802 6.96309C14.0666 6.87544 14.1742 6.81157 14.2925 6.77767C14.4108 6.74376 14.5359 6.74097 14.6556 6.76956C15.2684 6.93895 15.8238 7.27119 16.2629 7.73098C16.7214 8.17307 17.0514 8.73133 17.2175 9.34622C17.2461 9.46593 17.2433 9.591 17.2094 9.70931C17.1755 9.82763 17.1116 9.93519 17.024 10.0216L10.3417 16.6971C10.2309 16.8069 10.0871 16.8774 9.93248 16.898L7.57092 17.2425C7.45937 17.2588 7.34555 17.2485 7.2387 17.2126C7.13184 17.1766 7.03496 17.116 6.95591 17.0356C6.87686 16.9553 6.81787 16.8574 6.78371 16.75C6.74956 16.6425 6.74121 16.5285 6.75933 16.4173M12.7174 8.2344L15.7612 11.2781" stroke="black" stroke-linecap="round" stroke-linejoin="round"/>
</svg>