<svg xmlns="http://www.w3.org/2000/svg" width="34" height="34" viewBox="0 0 34 34" fill="none">
  <rect width="34" height="34" rx="8" fill="#2E2E2E"/>
  <path d="M9 12H25M15 16V22M19 16V22M10 12L11 24C11 24.5304 11.2107 25.0391 11.5858 25.4142C11.9609 25.7893 12.4696 26 13 26H21C21.5304 26 22.0391 25.7893 22.4142 25.4142C22.7893 25.0391 23 24.5304 23 24L24 12M14 12V9C14 8.73478 14.1054 8.48043 14.2929 8.29289C14.4804 8.10536 14.7348 8 15 8H19C19.2652 8 19.5196 8.10536 19.7071 8.29289C19.8946 8.48043 20 8.73478 20 9V12" stroke="white" stroke-linecap="round" stroke-linejoin="round"/>
</svg>