<svg xmlns="http://www.w3.org/2000/svg" width="24" height="24" viewBox="0 0 24 24" fill="none">
  <g clip-path="url(#clip0_145_471)">
    <path d="M22.0567 18.124L22.0148 1.97474L5.86551 1.93284C5.69726 1.91006 5.52608 1.92369 5.36355 1.97282C5.20103 2.02195 5.05096 2.10543 4.9235 2.21759C4.79604 2.32976 4.69418 2.46801 4.62479 2.62297C4.55541 2.77793 4.52012 2.94599 4.52134 3.11577C4.52255 3.28555 4.56023 3.45309 4.63182 3.60705C4.70341 3.761 4.80724 3.89778 4.93629 4.00812C5.06534 4.11845 5.21659 4.19977 5.37979 4.24658C5.543 4.29338 5.71436 4.30457 5.88227 4.27938L17.9837 4.32967L2.84523 19.3239C2.62297 19.5462 2.4981 19.8476 2.4981 20.1619C2.4981 20.4763 2.62297 20.7777 2.84523 21C3.0675 21.2223 3.36896 21.3471 3.68329 21.3471C3.99762 21.3471 4.29907 21.2223 4.52134 21L19.6599 6.00577L19.7101 18.1073C19.7112 18.4218 19.8372 18.7229 20.0604 18.9445C20.2836 19.1661 20.5857 19.29 20.9002 19.2889C21.2147 19.2878 21.5159 19.1618 21.7375 18.9386C21.9591 18.7154 22.0829 18.4134 22.0818 18.0989L22.0567 18.124Z" fill="#232323"/>
  </g>
  <defs>
    <clipPath id="clip0_145_471">
      <rect width="24" height="24" fill="white"/>
    </clipPath>
  </defs>
</svg>