<svg xmlns="http://www.w3.org/2000/svg" width="32" height="32" viewBox="0 0 32 32" fill="none">
  <rect x="0.5" y="0.5" width="31" height="31" rx="7.5" stroke="#C0362E"/>
  <path d="M14.2859 18.5718L18.7344 16.0004L14.2859 13.4289V18.5718ZM24.1944 11.8604C24.3059 12.2632 24.383 12.8032 24.4344 13.4889C24.4944 14.1747 24.5201 14.7661 24.5201 15.2804L24.5716 16.0004C24.5716 17.8775 24.4344 19.2575 24.1944 20.1404C23.9801 20.9118 23.483 21.4089 22.7116 21.6232C22.3087 21.7347 21.5716 21.8118 20.4401 21.8632C19.3259 21.9232 18.3059 21.9489 17.363 21.9489L16.0001 22.0004C12.4087 22.0004 10.1716 21.8632 9.28871 21.6232C8.51728 21.4089 8.02014 20.9118 7.80585 20.1404C7.69443 19.7375 7.61728 19.1975 7.56585 18.5118C7.50585 17.8261 7.48014 17.2347 7.48014 16.7204L7.42871 16.0004C7.42871 14.1232 7.56585 12.7432 7.80585 11.8604C8.02014 11.0889 8.51728 10.5918 9.28871 10.3775C9.69157 10.2661 10.4287 10.1889 11.5601 10.1375C12.6744 10.0775 13.6944 10.0518 14.6373 10.0518L16.0001 10.0004C19.5916 10.0004 21.8287 10.1375 22.7116 10.3775C23.483 10.5918 23.9801 11.0889 24.1944 11.8604Z" fill="#C0362E"/>
</svg>